# xmcd
#
# Track frame offsets: 
#        150
#        24597
#        49196
#        70643
#        98680
#        118700
#        140634
#        159215
#        184159
#        205501
#
# Disc length: 3204 seconds
#
# Revision: 0
# Processed by: cddbd v1.5.2PL0 Copyright (c) Steve Scherf et al.
# Submitted via: ExactAudioCopy v1.0b3
#
DISCID=7f0c820a
DTITLE=Silesian Hammond Grup - Coming Home
DYEAR=2019
DGENRE=Blues
TTITLE0=Coming Home
TTITLE1=Help Me!
TTITLE2=Never Trust
TTITLE3=Where Is The Fire?
TTITLE4=Sweet Song
TTITLE5=It Can Always Be Worse
TTITLE6=Silesian Jam
TTITLE7=You Need Love
TTITLE8=Feel No Mercy
TTITLE9=Empty Heart
EXTD=
EXTT0=
EXTT1=
EXTT2=
EXTT3=
EXTT4=
EXTT5=
EXTT6=
EXTT7=
EXTT8=
EXTT9=
PLAYORDER=
